<?xml version="1.0" encoding="UTF-8"?>
<!DOCTYPE svg PUBLIC "-//W3C//DTD SVG 1.1//EN" "http://www.w3.org/Graphics/SVG/1.1/DTD/svg11.dtd">
<!-- Creator: CorelDRAW X8 -->
<svg xmlns="http://www.w3.org/2000/svg" xml:space="preserve" width="300px" height="400px" version="1.1" style="shape-rendering:geometricPrecision; text-rendering:geometricPrecision; image-rendering:optimizeQuality; fill-rule:evenodd; clip-rule:evenodd"
viewBox="0 0 102 136"
 xmlns:xlink="http://www.w3.org/1999/xlink">
 <defs>
  <style type="text/css">
   <![CDATA[
    .fil0 {fill:none}
    .fil1 {fill:#2B2A29}
   ]]>
  </style>
 </defs>
 <g id="Layer_x0020_1">
  <metadata id="CorelCorpID_0Corel-Layer"/>
  <rect class="fil0" width="102" height="136"/>
  <path class="fil1" d="M16 17l70 0c9,0 16,7 16,16l0 70c0,9 -7,16 -16,16l-70 0c-9,0 -16,-7 -16,-16l0 -70c0,-9 7,-16 16,-16l0 0zm58 52c0,0 9,-12 10,-17 0,-1 0,-2 -2,-2 0,0 -5,0 -8,0 -1,0 -2,1 -3,2 0,0 -4,9 -9,14 -1,2 -2,3 -3,3 -1,0 -1,-1 -1,-2l0 -15c0,-2 0,-2 -2,-2l-12 0c-1,0 -2,0 -2,1 0,2 3,2 3,7l0 11c0,2 0,3 -1,3 -3,0 -9,-9 -12,-20 -1,-2 -2,-2 -4,-2l-7 0c-2,0 -2,0 -2,2 0,2 2,11 11,24 7,8 15,13 22,13 5,0 6,-1 6,-3l0 -6c0,-2 1,-3 2,-3 1,0 3,1 7,5 5,5 5,7 8,7l9 0c1,0 2,0 2,-2 0,-2 -3,-5 -7,-9 -1,-2 -4,-5 -5,-6 -1,-1 -1,-2 0,-3l0 0z"/>
 </g>
</svg>
